<?xml version="1.0" encoding="UTF-8" standalone="no"?>
<svg xmlns="http://www.w3.org/2000/svg" width="120mm" height="152mm" viewBox="0 0 425.19685 538.58267">
  <path d="M87.650397 496.78777C46.639314 466.1594 19.357925 423.26216 8.1434985 371.77114c-6.571229-60.30477.5267469-113.30693 34.8906445-162.47834 33.22504-44.06353 82.014937-73.50358 132.192937-83.32517 48.39947-6.81369 91.9236.78974 130.00002 19.5215 54.73701 27.14836 95.27965 78.8262 108.87069 138.77247 15.0995 66.59964-3.35953 136.07587-49.57829 186.60303-39.38044 43.05144-95.91041 67.57884-154.29242 66.94484-44.68602-.7958-92.73152-19.1753-122.576683-41.0217zm120.327023 12.9421c-.14639-.1464-6.07939-.9059-13.18443-1.6877-7.10505-.7818-17.94992-2.69-24.09973-4.2404-7.23296-1.8235-10.98597-2.3094-10.62781-1.3761.30451.7935 4.8637 7.7191 10.13154 15.3901l9.57788 13.9472 14.23436-10.8835c7.8289-5.9859 14.11457-11.0032 13.96819-11.1496zm55.91775 5.0995c5.2013-8.6305 9.45692-15.8871 9.45692-16.1258 0-.2388-3.86172.8724-8.58159 2.4693-4.71988 1.5968-13.57925 3.8185-19.68749 4.9369-6.10826 1.1185-13.2799 2.428-15.93698 2.91l-4.83108.8764 14.83107 10.2565c8.15709 5.6411 14.93483 10.2818 15.06166 10.3125.12682.031 4.48619-7.0053 9.68749-15.6358zm-137.64573-13.0872c8.97997-2.7659 16.58265-5.2843 16.89484-5.5965.31219-.3122-3.27792-2.293-7.97801-4.4018-9.82138-4.4066-21.56571-11.25911-28.43432-16.59077-2.60984-2.02584-5.06528-3.36321-5.45656-2.97194-.74.74001 7.2135 34.59001 8.12738 34.59001.28568 0 7.86668-2.263 16.84667-5.029zm198.36706-.9085c.008-.5156 1.32746-8.6719 2.93228-18.12503 1.60484-9.45313 2.72398-17.1875 2.48702-17.1875-.23699 0-4.22838 3.06603-8.8698 6.81342-4.64139 3.74738-13.62228 9.79425-19.95752 13.43748-6.33522 3.64333-11.53834 6.93523-11.56249 7.31553-.0241.3803 7.40923 2.4268 16.5186 4.5477 19.67735 4.5815 18.43397 4.366 18.45191 3.1984zm-88.92696-7.2849c7.3058-1.0848 18.90924-3.8436 25.78542-6.1307l12.50213-4.15841-7.9046-.11925c-44.76042-2.58936-68.74024-45.27145-67.1254-81.36927.61248-11.13578.34427-16.06503-1.19023-21.87501-13.63047-35.42207-46.36357-57.91828-83.15477-46.38774-22.741429 7.65595-38.56336 24.94186-43.300059 47.30661-5.583608 26.36339 5.914958 49.23158 38.530149 76.62831 35.05451 29.44576 81.32092 42.71846 125.85736 36.10546zM109.10461 453.2275c-.50615-.81899 2.54797-2.33345 7.9503-3.94231 4.82471-1.43686 10.25225-3.88558 12.06123-5.44159 2.9349-2.52449 3.1933-3.39579 2.39987-8.09208-.58346-3.45344-1.78745-5.74372-3.50183-6.66122-2.36686-1.26671-2.4207-1.5386-.57225-2.89021 3.08838-2.2583 1.4063-7.38689-2.07449-6.32498-9.53662 2.90935-19.67657 1.18784-21.5354-3.65619-.35279-.91934-1.64755-1.40841-2.87726-1.08681-1.244204.32536-3.768732-.73387-5.692023-2.38821-2.604508-2.24031-3.496791-4.18958-3.620932-7.91033-.09064-2.71557-.845073-5.65795-1.676607-6.53859-1.039496-1.10089-1.278723-4.2252-.765643-9.99999.833794-9.38484 2.112976-12.77386 4.821474-12.77386 1.007073 0 1.83104-1.01249 1.83104-2.24999 0-2.87983 2.370149-5.25 5.250001-5.25 1.2375 0 2.24999-.80358 2.24999-1.78571 0-3.09376 3.76701-5.71428 8.21429-5.71428 3.67292 0 4.28572-.42272 4.28572-2.95644 0-6.97161 8.4706-12.26367 15.40784-9.62614 2.01827.76734 3.34216.80521 3.34216.0956 0-.6463 1.13575-1.78292 2.52388-2.52584 1.90768-1.02094 3.35732-.89715 5.9375.50706 1.8775 1.02179 5.52299 2.7959 8.10112 3.94249 3.5532 1.58022 4.68751 2.81754 4.68751 5.1132 0 1.78464.89845 3.31565 2.1875 3.72762 7.91224 2.52872 12.81248 9.55338 12.81248 18.36707 0 3.05811.57331 4.60536 1.70644 4.60536 3.19195 0 8.29358 5.09193 8.29358 8.27779 0 1.70299.90639 4.84913 2.0142 6.99142 2.55506 4.94093 1.70368 13.85382-1.68317 17.62112-1.35218 1.50406-2.80839 3.72545-3.23601 4.93643-.58847 1.66643-2.07736 2.17288-6.12377 2.08296-2.94045-.0654-7.16791.27238-9.39437.7505-3.11742.66945-4.22584.4061-4.82123-1.14547-.49301-1.28476-2.25444-2.01479-4.86134-2.01479-2.24852 0-4.78846-.84375-5.64432-1.87499-2.01233-2.42469-4.27454-2.38029-6.35353.12474-1.39533 1.68129-1.23447 3.22404 1.01012 9.68751 1.46839 4.22827 3.03328 9.50904 3.47758 11.73502.77512 3.88362 5.68315 9.07013 8.59691 9.08472 3.3462.0167 10.76891 2.72749 10.76891 3.93279 0 .89249-6.39899 1.17811-19.68749.87875-10.82813-.24393-23.13013.0428-27.33778.63707-5.174.73085-7.91633.65017-8.4722-.24924zm184.55147 16.05638c10.7868-4.03586 21.84744-11.87257 33.44193-23.69436 14.42248-14.70525 23.73656-27.17799 31.10982-41.66003 20.25941-39.79217 24.055-82.89683 10.80712-122.73164-4.04738-12.16994-4.17797-12.3772-4.29361-6.81416-.18656 8.97591-4.6695 24.46337-9.69994 33.51094-18.86775 29.57889-43.34308 35.25576-69.64187 35.23838-21.18518-.0766-26.71132.94368-38.7055 7.14621-38.47708 19.89762-46.56976 73.44409-15.75678 104.25709 18.00382 15.71889 39.95278 22.80787 62.73883 14.74757zm-58.0761-24.21341c-1.01001-1.01002-2.57962-3.71245-3.48801-6.00538-.90839-2.29292-2.4239-5.08039-3.3678-6.19436-2.28372-2.69521.15449-8.31703 3.83725-8.8476 1.79105-.25803 3.69742-2.63459 6.04127-7.53127 2.56977-5.36867 4.26206-7.3645 6.78042-7.99658 3.75767-.94311 7.14485.65776 7.73536 3.65596.29153 1.48024-.50566 1.92438-3.12501 1.74103-3.07818-.21545-3.56327.23443-3.89271 3.61033-.41353 4.23777 2.3029 7.49588 5.293 6.34848 1.00293-.38486 3.30068-3.82226 5.10613-7.63866 2.25979-4.77676 4.19748-7.16855 6.21855-7.67581 4.53355-1.13784 7.47193-.12074 7.881 2.72797.28214 1.96485-.28375 2.56733-2.33626 2.48724-3.91163-.15262-5.76241 3.28155-3.93275 7.29725 2.42312 5.31816 6.2376 4.1979 9.24598-2.71543 1.42107-3.26562 3.44536-6.92188 4.49844-8.125 3.44092-3.93115 11.52725-2.16216 11.52725 2.52174 0 1.13807-.83203 1.44515-2.48989.91897-3.89436-1.23603-6.05025 4.47315-3.28361 8.6956 3.34113 5.09918 5.48541 3.99486 9.35633-4.81856 3.96718-9.03262 8.89606-11.84779 13.20287-7.54097 2.66743 2.66742 2.7471 6.49148.0893 4.28572-4.39131-3.64446-7.78826 5.15816-3.60491 9.34151 3.37092 3.37092 4.87438 1.99853 9.49915-8.67109 2.10987-4.86764 7.63699-8.06304 10.65748-6.16144 2.90373 1.8281 3.8453 6.15067 1.11123 5.10152-4.03458-1.54821-7.6137 5.56375-4.4115 8.76594.8069.80691 1.03124 2.94824.54215 5.17498-.63485 2.89056-1.6131 3.89113-4.09253 4.18604-4.15637.49436-5.1312 3.19007-1.34838 3.72867 3.12382.44476 4.17466 3.26454 2.98419 8.00772-.6244 2.48779-1.54584 3.02615-5.17948 3.02615-4.15027 0-4.60365-.41532-7.43006-6.80634-3.66349-8.28381-6.80472-10.44935-10.01374-6.90344-2.16044 2.38727-2.12894 2.45977 1.06885 2.45977 3.91698 0 5.64001 4.45715 3.36578 8.70658-1.09627 2.04842-2.38782 2.59754-5.41877 2.30393-3.36145-.32564-4.46478-1.34012-7.10446-6.53251-1.71875-3.38084-4.03291-6.70474-5.1426-7.38643-2.29485-1.40975-6.10739-.35292-6.10739 1.69297 0 .74966.58712 1.00015 1.30475.55664 1.97116-1.21825 4.94525 1.83965 4.94525 5.08465 0 5.26301-1.31332 6.82418-5.74075 6.82418-3.91133 0-4.50505-.5582-8.03814-7.55723-4.07248-8.06754-6.38351-9.90152-9.36202-7.42955-2.26473 1.87954-2.43087 3.92061-.2966 3.64347 3.82827-.49712 4.68751.29388 4.68751 4.31527 0 9.23661-7.71646 9.47861-12.61458.3956-4.0879-7.5805-6.65984-10.16347-9.1635-9.20272-2.58783.99304-2.55316 4.35748.0426 4.13377 6.0048-.5175 5.0772 10.75379-.94287 11.45674-1.79155.20921-4.08374-.44601-5.09375-1.45602zm17.07225-51.36314c-2.85023-4.35002-1.35751-7.94529 3.4976-8.424 3.77373-.37211 3.83928-.47404 1.68275-2.61712-1.35691-1.34844-3.1797-1.93292-4.61124-1.47857-3.10319.9849-5.78505-5.12369-3.71509-8.46204 3.11218-5.01926.10412-10.66904-4.84418-9.09849-3.04292.96577-3.3466-.89078-.59569-3.64168 4.28558-4.28559 11.7839-.60149 16.09623 7.90846 3.63472 7.1728 6.07806 8.48866 9.46783 5.09889 4.49385-4.49385 1.85707-11.13525-3.71837-9.36567-3.82907 1.21529-3.30852-2.81852.59314-4.59623 4.89271-2.22927 10.32829.98909 14.27262 8.45069 2.78861 5.27531 3.79535 6.16456 6.97896 6.16456 3.19169 0 3.77994-.52408 4.14004-3.68836.52061-4.57485-2.70281-7.47518-6.21741-5.59421-3.14292 1.68203-3.17316-1.43948-.0414-4.27368 5.04736-4.56779 11.8103-1.49105 16.24364 7.38989 3.58726 7.18604 5.37061 8.42209 8.74313 6.05989 5.32008-3.72631 1.70977-12.22159-3.86747-9.10042-1.7348.97083-2.15522.70109-2.15522-1.38278 0-1.56658 1.26726-3.16631 3.2091-4.05108 4.2257-1.92535 10.97498 1.5282 13.12348 6.71516 1.85145 4.46975 5.93535 9.80059 7.50815 9.80059 1.80538 0 6.15928-4.79671 6.15928-6.78571 0-2.96417-3.77399-5.87515-6.49661-5.01101-4.01858 1.27543-2.25272-3.5485 1.82376-4.98212 2.74981-.96706 4.10736-.70166 6.86285 1.34168 2.90229 2.15219 7.9999 9.42979 9.41421 13.44023.2188.62043 1.77549 1.22468 3.45929 1.34277 3.36329.23589 7.49327 6.56377 5.21696 7.99331-.68824.43222-2.89631 3.59836-4.90686 7.03585-3.19591 5.46419-4.22474 6.29817-8.18282 6.6331-3.55866.30111-4.82899-.1807-5.93752-2.252-2.35101-4.39289-1.10651-8.07626 2.88334-8.53378 4.57989-.52518 3.66816-3.34731-1.08142-3.34731-3.01179 0-4.40123 1.19347-8.36769 7.18751-4.25729 6.43351-5.20694 7.18749-9.05287 7.18749-4.75106 0-7.33578-3.06134-6.65062-7.87698.27922-1.96245 1.39484-2.86313 3.90261-3.15071 4.56965-.524 3.67325-3.34731-1.06279-3.34731-3.02851 0-4.18541 1.03817-7.36525 6.60943-3.92658 6.87962-6.98294 8.65792-12.50027 7.27317-3.37846-.84792-5.04538-4.43876-3.83332-8.25761.56535-1.78131 1.89127-2.49998 4.61228-2.49998 3.25278 0 3.58818-.27793 2.2627-1.87502-3.31965-3.99993-7.25909-2.26397-11.36267 5.00715-4.00033 7.08822-7.30037 9.10739-12.2942 7.52241-2.74691-.87182-4.59283-5.64789-3.39216-8.77675.3963-1.03279 2.14448-1.87779 3.88481-1.87779 3.56382 0 4.06808-1.44376 1.30514-3.73679-2.66513-2.21188-5.02429-.87623-9.25688 5.24078-2.04401 2.95406-4.59786 6.35538-5.67521 7.5585-2.85213 3.18509-7.77583 2.76037-10.15868-.87631zM79.843302 449.58364c-4.791329-5.32812-11.839211-14.06558-15.661932-19.41655l-6.950413-9.72907-.725359 4.10407c-1.290809 7.30322-4.253634 31.54559-3.898808 31.90041.390133.39015 23.857415 2.3895 31.159164 2.6547l4.788886.17394zm279.297628 2.16342c9.4468-1.38824 17.45925-2.80734 17.80546-3.15355.57098-.57098-1.73431-14.11775-5.0639-29.75744l-1.29015-6.06006-5.09613 8.56006c-6.2297 10.46412-13.56312 20.5572-20.06996 27.62257-2.69091 2.92188-4.57053 5.31249-4.17693 5.31249.39361 0 8.44483-1.13582 17.89161-2.52407zM46.496986 395.57089c-2.510309-6.27431-5.832736-17.06416-7.383181-23.97744l-2.818991-12.56964-8.971375 15.74215c-4.934245 8.65819-8.971357 16.0221-8.971357 16.36427 0 .79908 31.73718 16.75939 32.292051 16.23935.22938-.21498-1.636838-5.52439-4.147147-11.79869zm353.398644-8.35192c5.64232-3.0077 8.11561-4.99147 7.49999-6.01551-5.45555-9.07506-18.38097-29.26155-18.59753-29.045-.15394.15396-1.47588 6.17667-2.93762 13.3838-1.46174 7.20713-4.31161 17.86387-6.33305 23.68164-2.02144 5.81778-3.67534 10.73428-3.67534 10.92558 0 .19128 3.51564-1.63011 7.81251-4.04756 4.29688-2.41746 11.60083-6.41478 16.23104-8.88295zM63.74344 364.0255c8.662564-22.68613 25.900237-38.22187 48.93376-44.10234 28.44175-3.10117 61.22142-2.5134 79.51633-20.51506 9.81226-9.84828 15.33269-20.29677 18.23427-34.51197 6.31496-30.93743-11.60815-62.53959-41.55162-73.2641-10.55957-3.78202-28.34541-3.81595-38.64909-.0738-29.18573 13.90371-53.792772 42.82769-66.309287 68.3125-10.402914 21.42453-14.564315 36.10952-16.832826 59.40036-2.000462 20.53872 2.41499 51.94539 9.577663 68.125l2.213494 5 .835502-10.00001c.489328-5.8566 2.159855-13.46826 4.031804-18.37062zm13.358648-64.34234c-7.40945-1.1545-8.959454-1.94546-11.284102-5.75808-1.525885-2.50255-2.458323-6.27094-2.461225-9.94672-.0062-7.6831 4.666802-13.39102 11.929185-14.57148 4.747334-.77165 4.944439-.99982 5.754242-6.66097 1.992049-13.92624 11.210716-22.326 24.572782-22.3899 9.89285-.0472 16.69471 3.43143 21.48817 10.98993 2.62986 4.14687 5.35315 6.51116 9.95635 8.64386 3.485 1.61461 6.64247 3.73343 7.01662 4.70845.52386 1.36511 2.46832 1.62925 8.45591 1.14863 7.14908-.57387 8.11096-.34197 11.9375 2.87785 3.28498 2.76412 5.47224 3.521 10.38064 3.59216 5.3865.0781 6.70622.63573 9.86134 4.16691 5.33611 5.97214 5.11179 12.81813-.60741 18.53734l-4.25 4.25h-48.14776c-26.48129 0-48.896917.20226-49.812511.44948-.915612.24722-3.070984.23035-4.789731-.0375zm74.318192-48.48021c-4.17775-4.17775-4.21503-11.70914-.0817-16.51437 2.4349-2.83075 4.03232-3.47848 8.64941-3.50721 4.11917-.0256 6.47905-.80196 8.65662-2.84774 5.77101-5.42181 18.04051-2.534 20.36615 4.79348.44353 1.39741 3.28927 4.82937 6.32388 7.62658 6.01959 5.54865 7.161 10.04989 3.09966 12.22346-1.38831.74302-11.2591 1.29399-23.18182 1.29399-20.37905 0-20.82087-.0569-23.83217-3.06819zm-33.68109-26.7191c-3.29594-.55355-5.12682-1.56782-5.39738-2.99005-.48395-2.54372 3.45717-8.37706 5.69778-8.4334.85937-.0216 1.5625-.88302 1.5625-1.91427 0-5.67623 10.43012-9.02461 15.69859-5.03974 1.33452 1.00937 3.97328 1.85312 5.86391 1.87499 7.10483.0821 10.81838 8.17488 6.25 13.62022-1.84035 2.19361-3.97287 2.69569-13.4375 3.16369-6.18749.30595-13.49455.17931-16.2379-.28144zm-80.725134 76.14746c.742534-3.72064 1.092933-7.02193.778685-7.33617-.31423-.31425-6.645074 4.37832-14.068503 10.42795-7.42343 6.0496-13.712024 11.1595-13.9746347 11.35532-.2626111.1958 5.0811457 6.36178 11.8749957 13.70216l12.352474 13.34617.843475-17.3653c.463904-9.55092 1.450974-20.40949 2.193508-24.13013zm362.573994 23.63983c5.05547-5.84376 10.25844-11.82663 11.56218-13.29531l2.37046-2.67029-14.03332-10.77652c-7.71833-5.92708-14.25363-10.55621-14.52288-10.28696-.26926.26924.3991 5.61136 1.48524 11.87137 1.08612 6.26 2.0991 17.01235 2.25108 23.89414.15193 6.88176.59561 12.37196.98587 12.20045.3903-.17154 4.84591-5.09313 9.90137-10.93688zm-97.23498 4.87878c35.01431-7.24822 58.5229-43.80981 49.00479-76.21441-4.01108-13.65579-9.03781-21.05949-25.44897-37.48284-50.49776-47.00515-110.21507-59.83025-165.05681-42.04252l-11.87499 3.8793 9.49755.82571c12.10811 1.05271 23.95327 5.00124 33.48576 11.16239 23.42068 15.13752 34.06956 38.6737 31.93247 70.57731-.94607 14.12335.74938 23.29999 6.45928 34.96113 12.39012 25.30392 43.63894 40.20504 72.00092 34.33393zm-24.00097-18.01654c-8.43278-2.36489-18.16767-7.68429-21.66139-11.83634-1.70751-2.02925-4.5867-8.14003-6.39821-13.57949-1.81149-5.43946-5.23918-13.1208-7.61703-17.06961-2.37786-3.94883-4.32338-7.46639-4.32338-7.81681 0-1.73785 9.52197 1.2321 13.37673 4.17226 3.54793 2.70614 4.605 3.01859 5.48814 1.62223 1.60274-2.53419.0415-9.71746-3.43226-15.79199l-3.03799-5.31249h3.34265c1.83846 0 5.31725 1.22036 7.73066 2.71195l4.38804 2.71195-.60142-9.27445c-.33994-5.24205-1.54436-11.09128-2.77016-13.45313-1.19281-2.29825-1.95548-4.39192-1.69483-4.65254.26064-.26067 4.00888 1.19786 8.32939 3.24116 4.32054 2.04328 8.00204 3.71505 8.1811 3.71505.17907 0 .68589-4.92188 1.12624-10.9375.83653-11.42762 2.76234-20.3125 4.4028-20.3125 1.38148 0 15.18704 28.8886 15.23274 31.87501.0316 2.06714.37052 1.88694 1.9573-1.04086 1.05545-1.94748 1.58966-4.47871 1.18713-5.62499-.40252-1.1463 1.2161-.0125 3.59698 2.52065 5.43099 5.77722 8.77607 16.39203 7.51599 23.85032-.78142 4.6252-.65998 5.0513 1.03808 3.64204 1.05768-.87779 2.61582-4.48386 3.46257-8.01347l1.53953-6.4175 3.11364 3.61981c2.96444 3.44639 3.07628 4.14608 2.33393 14.6044-.8092 11.39992.56817 14.58439 3.1298 7.23608 2.10118-6.02744 3.95551-2.99857 3.20841 5.24061-.39374 4.34208-2.09981 10.33963-4.12931 14.51604-4.05646 8.34766-18.20911 23.15561-24.73818 25.88361-5.24851 2.19298-15.39863 2.18012-23.27769-.0295zm18.02166-8.47088c8.70166-8.70167 12.9811-20.6121 5.53102-15.39386-4.01669 2.8134-4.93039 2.50107-3.52176-1.20389 1.53122-4.02739 1.58796-10.54362.0919-10.54362-.61999 0-2.29801 1.82814-3.72895 4.0625l-2.60169 4.0625-.021-8.19859c-.0125-4.86435-.70502-9.13397-1.70288-10.4986-1.50018-2.05162-1.87143-1.31111-3.43751 6.85707-.96561 5.03642-2.44197 9.38019-3.28078 9.65282-.83881.27264-2.66483-1.37368-4.05783-3.6585l-2.53272-4.1542-.005 3.90535c-.003 2.14793.81412 6.22606 1.81487 9.06249 1.00076 2.83644 1.32865 5.15715.72868 5.15715-.59998 0-3.14058-2.39061-5.64579-5.31249l-4.55489-5.31249.81089 5.625c.44597 3.09374 1.74589 7.58252 2.88872 9.9751 2.17668 4.55699 11.56427 12.52489 14.75653 12.52489 1.02265 0 4.83323-2.97388 8.46798-6.60863zm-7.54057-61.90854c.34575-.55946-.10599-3.79382-1.004-7.1875l-1.63267-6.17034-.91594 4.57883c-1.30931 6.54533 1.16073 12.64917 3.55261 8.77901zm-230.127691.70468c3.175948-5.32813 5.466704-9.68751 5.090588-9.68751-1.011428 0-33.480451 10.2983-34.091201 10.81281-.460488.38793 6.05655 18.59985 10.838695 30.28878l1.729162 4.22659 5.329153-12.9766c2.931027-7.13712 7.927636-17.33595 11.103603-22.66407zm327.780771 9.36415c2.61845-7.74034 4.53129-14.24415 4.2508-14.4529-.92448-.68803-32.07545-9.59875-33.55626-9.59875-.79685 0 .16859 2.39061 2.14547 5.31249 7.17662 10.60733 13.41308 23.05953 18.31165 36.56251.86272 2.37816.98444 2.3477 2.49727-.62501.87464-1.71874 3.73265-9.458 6.35107-17.19834zm-285.98231-57.78406 10.12287-8.1426-7.07487-.80183c-3.891184-.44101-11.996748-.86289-18.012371-.93751l-10.937505-.13565v36.22996l7.889501-9.03488c4.339236-4.96918 12.4448-12.69907 18.012375-17.17749zm247.00916 5.06669-.81241-17.85895c-10.60068 1.11046-21.52733.58415-32.01697 2.59068l-4.15503.84979 8.59919 6.44589c4.72956 3.54525 13.0692 10.9723 18.53254 16.50458 5.46337 5.53227 10.098 9.89404 10.29922 9.69281.20122-.20121 0-8.40238-.44654-18.2248zm-210.14818-27.62396c5.77664-2.77182 16.09628-6.93194 22.93257-9.24468l12.42959-4.20499-11.25001-5.26328c-18.03361-8.43697-21.76718-9.9331-22.36684-8.96284-.50349.81467-3.31767 7.74969-10.86625 26.77796-1.29549 3.26562-2.13641 5.93749-1.86873 5.93749.2677 0 5.21306-2.26785 10.98967-5.03966zm147.10401-28.6986c-.65638 3.04881-33.8679 14.80797-30.46641 16.31199 16.92942 3.92624 28.99263 11.90229 44.11016 16.75044-4.62151-10.18518-6.81395-23.95538-13.64375-33.06243zm-79.86686 11.93469c6.53125-.41285 16.375-.25851 21.87501.343 5.49999.60151 10.21561.9137 10.47916.69378.26353-.21994-5.08021-6.27096-11.87499-13.44673l-12.35419-13.04686-7.90796 7.69269c-4.34939 4.23098-10.24596 10.45842-13.10351 13.83875-4.79796 5.67573-4.95805 6.0898-2.09202 5.41105 1.70692-.40428 8.44724-1.07282 14.9785-1.48568zM98.43301 131.45864c.485783-9.3787 19.59673-130.9585 20.54407-130.69703.68752.18976 20.33004 23.41642 43.65009 51.61478 37.61545 45.48422 42.05874 51.30929 39.375 51.62014-37.26676 4.31675-65.453 11.60696-91.02017 23.54192-13.300213 6.20861-12.657113 6.00772-12.54899 3.92019zm43.89202-30.15944c5.72113-1.65708 14.90206-3.71292 20.40205-4.56854 18.73755-2.91497 17.94707-1.4955 7.6861-13.80198-4.91485-5.8946-16.77575-20.20377-26.35755-31.79811-9.58181-11.59435-17.58974-20.55273-17.79539-19.90754-.53101 1.66593-11.65815 77.7493-11.65815 79.71414 0 1.0928 2.83643.27402 8.66044-2.50002 4.76324-2.26879 13.34136-5.48085 19.0625-7.13795zm-15.14519-8.59057c.0427-1.54686 1.31575-10.93141 2.82887-20.85453l2.75112-18.04204 13.32123 16.16278c7.32667 8.88952 13.18915 16.29484 13.02774 16.45625-.16142.16143-4.61337 1.12003-9.8932 2.13023-5.27983 1.01019-12.20556 2.98942-15.3905 4.39827-7.09996 3.14065-6.73941 3.15426-6.64526-.25096z"/>
</svg>